{"title":"Pod.2015.WEBRip.480p.x264.AAC-VYTO [P2PDL]","uid":12316659,"size":295583182,"categoryP":"video","categoryS":"movies","magnet":"?xt=urn:btih:314280cf92723a64abb6346d70460248667c863e&amp;dn=Pod.2015.WEBRip.480p.x264.AAC-VYTO+%5BP2PDL%5D&amp;tr=udp%3A%2F%2Ftracker.openbittorrent.com%3A80&amp;tr=udp%3A%2F%2Fopen.demonii.com%3A1337&amp;tr=udp%3A%2F%2Ftracker.coppersurfer.tk%3A6969&amp;tr=udp%3A%2F%2Fexodus.desync.com%3A6969","seeders":2,"leechers":2,"uploader":"ValidusVyto","files":7,"time":1441006720,"description":"____    ____ ____    ____ .___________.  ______   \n     /   /      /   / |           | /  __    \n    /   /      /   /  `---|  |----`|  |  |  | \n        /     _    _/       |  |     |  |  |  | \n       /        |  |         |  |     |  `--'  | \n    __/         |__|         |__|      ______/  \n                                                  \nPresenting Small Encodes with quality for years!\n                                                                                                   \n                                                                                                   \n\nPod.2015.WEBRip.480p.x264.AAC-VYTO\n\n\nGenre: Horror, Mystery, Thriller &lt;a href=&quot;\nhttp://www.imdb.com/title/tt3541080/&quot; rel=&quot;nofollow&quot; target=&quot;_NEW&quot;&gt;\nhttp://www.imdb.com/title/tt3541080/&lt;/a&gt;\n\n\nGeneral\nFormat                         : MPEG-4\nFile size                      : 276 MiB\nDuration                       : 1h 18mn\nOverall bit rate               : 493 Kbps\n\nVideo\nFormat                         : AVC\nBit rate                       : 458 Kbps\nWidth                          : 720 pixels\nHeight                         : 304 pixels\nDisplay aspect ratio           : 2.35:1\nFrame rate mode                : Constant\nFrame rate                     : 23.976 fps\nBit depth                      : 8 bits\nStream size                    : 256 MiB (93%)\nWriting library                : x264 core 148 r2597 \n\nAudio\nFormat                         : AAC\nBit rate mode                  : Variable\nBit rate                       : 32.0 Kbps\nChannel(s)                     : 2 channels\nChannel positions              : Front: L R \nSampling rate                  : 48.0 KHz \nStream size                    : 17.9 MiB (6%)\nLanguage                       : English\n\nSubtitle                       : Yes (English)\nSource                     \t   : 720p.WEB-DL.DD5.1.H264\n\nScreenshots:\n &lt;a href=&quot;\nhttp://ititli.com/4h&quot; rel=&quot;nofollow&quot; target=&quot;_NEW&quot;&gt;\nhttp://ititli.com/4h&lt;/a&gt; &lt;a href=&quot;\nhttp://ititli.com/4s&quot; rel=&quot;nofollow&quot; target=&quot;_NEW&quot;&gt;\nhttp://ititli.com/4s&lt;/a&gt; &lt;a href=&quot;\nhttp://ititli.com/4Y&quot; rel=&quot;nofollow&quot; target=&quot;_NEW&quot;&gt;\nhttp://ititli.com/4Y&lt;/a&gt; &lt;a href=&quot;\nhttp://ititli.com/44&quot; rel=&quot;nofollow&quot; target=&quot;_NEW&quot;&gt;\nhttp://ititli.com/44&lt;/a&gt; &lt;a href=&quot;\nhttp://ititli.com/4K&quot; rel=&quot;nofollow&quot; target=&quot;_NEW&quot;&gt;\nhttp://ititli.com/4K&lt;/a&gt; &lt;a href=&quot;\nhttp://ititli.com/4V&quot; rel=&quot;nofollow&quot; target=&quot;_NEW&quot;&gt;\nhttp://ititli.com/4V&lt;/a&gt; &lt;a href=&quot;\nhttp://ititli.com/4t&quot; rel=&quot;nofollow&quot; target=&quot;_NEW&quot;&gt;\nhttp://ititli.com/4t&lt;/a&gt; &lt;a href=&quot;\nhttp://ititli.com/4L&quot; rel=&quot;nofollow&quot; target=&quot;_NEW&quot;&gt;\nhttp://ititli.com/4L&lt;/a&gt; &lt;a href=&quot;\nhttp://ititli.com/4d&quot; rel=&quot;nofollow&quot; target=&quot;_NEW&quot;&gt;\nhttp://ititli.com/4d&lt;/a&gt; &lt;a href=&quot;\nhttp://ititli.com/40&quot; rel=&quot;nofollow&quot; target=&quot;_NEW&quot;&gt;\nhttp://ititli.com/40&lt;/a&gt; &lt;a href=&quot;\nhttp://ititli.com/4A&quot; rel=&quot;nofollow&quot; target=&quot;_NEW&quot;&gt;\nhttp://ititli.com/4A&lt;/a&gt; &lt;a href=&quot;\nhttp://ititli.com/4l&quot; rel=&quot;nofollow&quot; target=&quot;_NEW&quot;&gt;\nhttp://ititli.com/4l&lt;/a&gt;\n\n----------------------------------------------------------------------------------------------------\n\n\nEncoder Notes: Looking For Early Access To Anything You Can Provide DVDScr, R5, DVDR, BluRay, Direct\nAudio, Music Releases and Seedboxes. If You Got anything to offer please contact us.\n\nSupport us by donating BC - 1FgwdzPsd1y25Gea8wP1qni35uGCtmkRCD","torrent":{"xt":"urn:btih:314280cf92723a64abb6346d70460248667c863e","amp;dn":"Pod.2015.WEBRip.480p.x264.AAC-VYTO+%5BP2PDL%5D","amp;tr":["udp%3A%2F%2Ftracker.openbittorrent.com%3A80","udp%3A%2F%2Fopen.demonii.com%3A1337","udp%3A%2F%2Ftracker.coppersurfer.tk%3A6969","udp%3A%2F%2Fexodus.desync.com%3A6969"],"infoHash":"314280cf92723a64abb6346d70460248667c863e","infoHashBuffer":{"type":"Buffer","data":[49,66,128,207,146,114,58,100,171,182,52,109,112,70,2,72,102,124,134,62]},"announce":[],"urlList":[]}}